PathFileType	4	(X/Y/Z)	4_coords_data.trc
DataRate	CameraRate	NumFrames	NumMarkers	Units	OrigDataRate	OrigDataStartFrame	OrigNumFrames
30.0	30.0	7	21	m	30.0	20	57
Frame#	Time	THUMB_TIP	THUMB_IP	THUMB_MCP	THUMB_CMC	INDEX_TIP	INDEX_DIP	INDEX_PIP	INDEX_MCP	MIDDLE_TIP	MIDDLE_DIP	MIDDLE_PIP	MIDDLE_MCP	RING_TIP	RING_DIP	RING_PIP	RING_MCP	PINKY_TIP	PINKY_DIP	PINKY_PIP	PINKY_MCP	WRIST
X1	Y1	Z1	X2	Y2	Z2	X3	Y3	Z3	X4	Y4	Z4	X5	Y5	Z5	X6	Y6	Z6	X7	Y7	Z7	X8	Y8	Z8	X9	Y9	Z9	X10	Y10	Z10	X11	Y11	Z11	X12	Y12	Z12	X13	Y13	Z13	X14	Y14	Z14	X15	Y15	Z15	X16	Y16	Z16	X17	Y17	Z17	X18	Y18	Z18	X19	Y19	Z19	X20	Y20	Z20	X21	Y21	Z21
19	0.6333333333333333	-0.049400100708007814	-0.1305679931640625	1.040489990234375	-0.05283530044555664	-0.10386100006103516	1.04993994140625	-0.07191999816894531	-0.08498709869384766	1.069010009765625	-0.0769375991821289	-0.04743579864501953	1.0831600341796874	-0.026722400665283204	-0.0920907974243164	0.9495499877929687	-0.04044010162353515	-0.08497019958496094	0.9656610107421875	-0.0509557991027832	-0.07607759857177734	0.986531005859375	-0.07195709991455078	-0.060659900665283206	1.0201300048828126	-0.027950700759887696	-0.028667699813842772	0.9227869873046874	-0.039544998168945314	-0.03038509941101074	0.9471939697265624	-0.051277801513671874	-0.032643501281738284	0.9755859985351563	-0.07321959686279297	-0.03471530151367187	1.0138699951171875	-0.024742700576782226	0.018368999481201173	0.9360700073242187	-0.03766059875488281	0.011409500122070312	0.9573270263671875	-0.04861230087280274	0.002492500066757202	0.9821179809570313	-0.06605400085449219	-0.010635000228881836	1.017260009765625	-0.020883899688720703	0.06277130126953125	0.9909459838867187	-0.03441770172119141	0.04937710189819336	1.00127001953125	-0.04663349914550781	0.03544779968261719	1.0103900146484375	-0.06326440048217774	0.011224599838256836	1.0255400390625	-0.10512100219726563	-0.01639539909362793	1.1012099609375
20	0.6666666666666666	-0.0491598014831543	-0.13060000610351563	1.0406099853515625	-0.05267890167236328	-0.10390499877929688	1.0501500244140625	-0.07180100250244141	-0.08512770080566406	1.0692900390625	-0.0768927001953125	-0.0475635986328125	1.083510009765625	-0.0263533992767334	-0.09233910369873047	0.9499869995117187	-0.040132999420166016	-0.08512979888916015	0.9660969848632812	-0.05071060180664062	-0.0762300033569336	0.9869149780273437	-0.07184369659423828	-0.0607775993347168	1.0204400024414062	-0.0276161003112793	-0.0287903995513916	0.923093017578125	-0.03917739868164063	-0.030493999481201173	0.94747998046875	-0.05099349975585937	-0.032784099578857424	0.975958984375	-0.0729739990234375	-0.03482429885864258	1.01427001953125	-0.024412799835205078	0.018131900787353515	0.9364110107421875	-0.03728939819335937	0.011180999755859376	0.9576409912109375	-0.048337001800537106	0.002299629926681518	0.9825079956054688	-0.06583390045166015	-0.010724699974060059	1.0176599731445313	-0.02045560073852539	0.06256629943847657	0.9914459838867188	-0.0340536003112793	0.0491890983581543	1.001739990234375	-0.04628099822998047	0.035279499053955075	1.0108400268554687	-0.06293429946899413	0.011078399658203125	1.025780029296875	-0.10499400329589843	-0.016612300872802733	1.1014599609375
21	0.7	-0.04867440032958984	-0.13027200317382812	1.04072998046875	-0.052387298583984374	-0.10368299865722656	1.0503599853515626	-0.07162689971923829	-0.08506590270996094	1.0695799560546875	-0.07671099853515626	-0.047537601470947266	1.083780029296875	-0.026096300125122072	-0.0920717010498047	0.9502479858398437	-0.039847198486328124	-0.08492559814453125	0.9663469848632813	-0.05047380065917969	-0.07604329681396485	0.98722802734375	-0.07174459838867188	-0.060682899475097654	1.0208699951171876	-0.0274242000579834	-0.028580699920654297	0.9234359741210938	-0.039015499114990235	-0.030290000915527342	0.9478270263671875	-0.050904800415039066	-0.03260300064086914	0.9762319946289062	-0.072993896484375	-0.03479059982299805	1.014469970703125	-0.02423080062866211	0.01817300033569336	0.93677001953125	-0.03715250015258789	0.011244099617004394	0.9580260009765625	-0.0482406005859375	0.00239611005783081	0.9828489990234375	-0.06585449981689454	-0.01061639976501465	1.0179299926757812	-0.020355499267578125	0.06269889831542969	0.9918770141601563	-0.03399100112915039	0.04934560012817383	1.0021599731445312	-0.046246101379394534	0.03543899917602539	1.011280029296875	-0.06290219879150391	0.011157699584960937	1.0261400146484374	-0.10494599914550781	-0.01666900062561035	1.10172998046875
22	0.7333333333333333	-0.04888550186157226	-0.12988400268554687	1.040510009765625	-0.052550899505615235	-0.10334600067138672	1.050280029296875	-0.07174710083007813	-0.08481340026855469	1.0696500244140625	-0.07674490356445313	-0.04730839920043945	1.0839000244140624	-0.026367700576782227	-0.09174430084228516	0.9502620239257813	-0.04012760162353515	-0.08460540008544921	0.9663820190429687	-0.05071469879150391	-0.07573560333251952	0.9872849731445312	-0.07186830139160157	-0.060351200103759765	1.0208400268554687	-0.02776289939880371	-0.028315399169921877	0.9234929809570313	-0.03925910186767578	-0.03004800033569336	0.9478510131835938	-0.05109379959106446	-0.03237039947509766	0.97625	-0.07296859741210937	-0.03442100143432617	1.0145599975585937	-0.024509899139404295	0.018395599365234376	0.9367379760742187	-0.03739300155639649	0.01149619960784912	0.9580230102539062	-0.04832809829711914	0.002670759916305542	0.9828400268554688	-0.06583679962158204	-0.010355999946594238	1.0180599975585938	-0.020747400283813475	0.06293140029907227	0.9915830078125	-0.034271400451660154	0.04954600143432617	1.0019500122070313	-0.04644729995727539	0.03564699935913086	1.0111900024414062	-0.06295009994506837	0.011446200370788574	1.026260009765625	-0.10501200103759765	-0.01647249984741211	1.1018599853515625
23	0.7666666666666667	-0.049459400177001955	-0.12981500244140626	1.0406199951171875	-0.05307820129394531	-0.10323899841308594	1.0504300537109375	-0.07206490325927735	-0.08469950103759766	1.0699300537109375	-0.07700450134277344	-0.04725189971923828	1.084239990234375	-0.026866300582885742	-0.0921011962890625	0.9505709838867188	-0.04059080123901367	-0.08492009735107423	0.9666320190429688	-0.05114189910888672	-0.07599500274658202	0.9874869995117187	-0.07233580017089844	-0.06052899932861328	1.0211099853515626	-0.02873940086364746	-0.02910300064086914	0.92327197265625	-0.04010150146484375	-0.03071649932861328	0.94789697265625	-0.05177569961547852	-0.032788600921630856	0.9764500122070312	-0.07344979858398437	-0.034611099243164065	1.0147100219726561	-0.02576009941101074	0.017669099807739258	0.9361710205078125	-0.03831169891357422	0.010879899978637695	0.9575469970703125	-0.04903770065307617	0.002211549997329712	0.9825579833984375	-0.066285400390625	-0.010479399681091309	1.0179400024414063	-0.02202370071411133	0.06265599822998047	0.9901840209960937	-0.035236698150634765	0.04925569915771484	1.0009600219726562	-0.04719950103759766	0.03536009979248047	1.010489990234375	-0.06338090133666992	0.011318499565124512	1.0261099853515625	-0.10511000061035156	-0.01635810089111328	1.10202001953125
24	0.8	-0.049572601318359374	-0.13030299377441407	1.04075	-0.053121498107910156	-0.10364199829101563	1.050530029296875	-0.07211640167236329	-0.08534130096435547	1.0703199462890625	-0.07716699981689454	-0.04788249969482422	1.0846099853515625	-0.02560919952392578	-0.09262920379638671	0.9516939697265625	-0.03952069854736328	-0.08557630157470703	0.96772802734375	-0.05050839996337891	-0.07678690338134765	0.9885070190429688	-0.072543701171875	-0.06158779907226562	1.0217100219726563	-0.02841900062561035	-0.030900299072265627	0.9239140014648437	-0.03966130065917969	-0.03239699935913086	0.9486229858398437	-0.051643600463867186	-0.03428099822998047	0.9771920166015625	-0.0739093017578125	-0.03571089935302734	1.0151900024414062	-0.025281900405883788	0.015645400047302246	0.9361649780273438	-0.037684799194335934	0.009029009819030761	0.9580540161132812	-0.048912101745605466	0.0007167969942092891	0.9830040283203125	-0.067177001953125	-0.011453200340270996	1.0183400268554688	-0.022986700057983398	0.0609630012512207	0.9888629760742188	-0.036143600463867186	0.04775569915771485	0.9999580078125	-0.048127201080322264	0.03405640029907227	1.0099099731445313	-0.06431900024414063	0.010441399574279786	1.0261600341796875	-0.10538800048828124	-0.017111799240112305	1.10225
25	0.8333333333333334	-0.04519079971313476	-0.12965699768066405	1.0403499755859376	-0.05038579940795898	-0.10330300140380859	1.0503399658203125	-0.07051950073242187	-0.08634410095214844	1.0706800537109376	-0.07674829864501953	-0.04909410095214844	1.08502001953125	-0.022234800338745118	-0.09101069641113281	0.9525800170898437	-0.03676919937133789	-0.08463469696044922	0.9688179931640625	-0.048764999389648435	-0.07658419799804687	0.98939599609375	-0.07210079956054688	-0.0626791000366211	1.022510009765625	-0.027262899398803712	-0.03190959930419922	0.9250139770507813	-0.038400798797607424	-0.03354130172729492	0.9498419799804687	-0.050940101623535156	-0.03544599914550781	0.9781669921875	-0.07388590240478515	-0.0368848991394043	1.0158300170898438	-0.024290199279785155	0.013992300033569336	0.9367639770507813	-0.03647100067138672	0.007310150146484375	0.9590919799804688	-0.048412300109863284	-0.0007756739854812621	0.9841329956054687	-0.06855120086669922	-0.01257289981842041	1.0191599731445313	-0.02248609924316406	0.05802679824829102	0.9889569702148437	-0.03620389938354492	0.0453838005065918	1.0000800170898438	-0.048782798767089845	0.03219800186157227	1.009969970703125	-0.06596499633789063	0.009356679916381836	1.0264200439453126	-0.10535199737548828	-0.01884269905090332	1.102550048828125
